<?xml version="1.0" encoding="UTF-8"?>
<!DOCTYPE svg PUBLIC "-//W3C//DTD SVG 1.1//EN" "http://www.w3.org/Graphics/SVG/1.1/DTD/svg11.dtd">
<svg xmlns="http://www.w3.org/2000/svg" version="1.1" width="512px" height="512px" style="shape-rendering:geometricPrecision; text-rendering:geometricPrecision; image-rendering:optimizeQuality; fill-rule:evenodd; clip-rule:evenodd" xmlns:xlink="http://www.w3.org/1999/xlink">
<g><path style="opacity:0.992" fill="#000000" d="M 233.5,-0.5 C 248.167,-0.5 262.833,-0.5 277.5,-0.5C 377.805,11.9821 449.305,63.9821 492,155.5C 502.297,180.687 508.797,206.687 511.5,233.5C 511.5,248.167 511.5,262.833 511.5,277.5C 499.018,377.805 447.018,449.305 355.5,492C 330.313,502.297 304.313,508.797 277.5,511.5C 262.833,511.5 248.167,511.5 233.5,511.5C 133.195,499.018 61.6947,447.018 19,355.5C 8.70332,330.313 2.20332,304.313 -0.5,277.5C -0.5,262.833 -0.5,248.167 -0.5,233.5C 11.9821,133.195 63.9821,61.6947 155.5,19C 180.687,8.70332 206.687,2.20332 233.5,-0.5 Z M 175.5,157.5 C 182.549,156.718 189.216,157.885 195.5,161C 216.305,180.805 236.805,200.971 257,221.5C 276.195,201.971 295.695,182.805 315.5,164C 331.664,155.998 344.164,159.832 353,175.5C 355.658,184.283 354.658,192.616 350,200.5C 330.986,219.347 312.153,238.347 293.5,257.5C 314.181,278.348 334.681,299.348 355,320.5C 362.638,336.583 358.805,349.083 343.5,358C 335.224,361.284 327.224,360.617 319.5,356C 298.348,335.681 277.348,315.181 256.5,294.5C 235.014,315.486 213.68,336.653 192.5,358C 178.57,365.66 166.403,363.493 156,351.5C 149.926,340.772 150.592,330.439 158,320.5C 178.833,299.667 199.667,278.833 220.5,258C 201.667,239.167 182.833,220.333 164,201.5C 156.495,193.064 154.495,183.398 158,172.5C 161.92,165.066 167.754,160.066 175.5,157.5 Z"/></g>
</svg>
