<?xml version="1.0" standalone="no"?>
<!DOCTYPE svg PUBLIC "-//W3C//DTD SVG 20010904//EN"
 "http://www.w3.org/TR/2001/REC-SVG-20010904/DTD/svg10.dtd">
<svg version="1.0" xmlns="http://www.w3.org/2000/svg"
 width="512.000000pt" height="512.000000pt" viewBox="0 0 512.000000 512.000000"
 preserveAspectRatio="xMidYMid meet">

<g transform="translate(0.000000,512.000000) scale(0.100000,-0.100000)"
fill="#000000" stroke="none">
<path d="M2425 4956 c-27 -7 -77 -24 -109 -39 -33 -15 -461 -309 -952 -652
-956 -670 -969 -680 -1032 -808 -65 -132 -62 -56 -62 -1429 0 -855 3 -1264 11
-1300 19 -94 85 -213 159 -288 75 -74 194 -140 288 -159 71 -15 713 -15 784 0
29 6 90 28 135 50 133 63 239 183 296 335 21 57 22 74 27 519 5 441 6 461 26
495 11 19 38 45 60 57 39 23 41 23 502 23 441 0 465 -1 501 -20 22 -11 50 -36
62 -57 l24 -38 5 -460 c6 -510 4 -491 77 -624 73 -132 234 -250 381 -280 71
-15 713 -15 784 0 29 6 90 28 135 50 133 63 238 183 296 335 l22 59 3 1274 c3
1404 6 1325 -59 1457 -64 129 -76 139 -1034 809 -516 362 -919 637 -956 654
-35 16 -88 34 -117 40 -68 14 -193 13 -257 -3z m224 -321 c56 -19 1794 -1237
1826 -1279 58 -77 55 4 55 -1327 0 -927 -3 -1232 -12 -1263 -16 -55 -109 -148
-164 -164 -57 -17 -651 -17 -706 0 -49 15 -129 85 -154 135 -17 35 -19 75 -24
493 -5 443 -6 457 -29 519 -59 167 -198 291 -360 321 -31 6 -251 10 -523 10
-525 0 -560 -3 -665 -66 -105 -63 -172 -147 -214 -265 -23 -62 -24 -76 -29
-519 -5 -418 -7 -458 -24 -493 -25 -50 -105 -120 -154 -135 -55 -17 -649 -17
-706 0 -55 16 -148 109 -164 164 -9 31 -12 337 -12 1266 l0 1224 25 50 c14 28
37 62 52 76 53 48 1766 1240 1802 1253 49 18 129 18 180 0z"/>
</g>
</svg>
