<?xml version="1.0" standalone="no"?>
<!DOCTYPE svg PUBLIC "-//W3C//DTD SVG 20010904//EN"
 "http://www.w3.org/TR/2001/REC-SVG-20010904/DTD/svg10.dtd">
<svg version="1.0" xmlns="http://www.w3.org/2000/svg"
 width="512.000000pt" height="512.000000pt" viewBox="0 0 512.000000 512.000000"
 preserveAspectRatio="xMidYMid meet">

<g transform="translate(0.000000,512.000000) scale(0.100000,-0.100000)"
fill="#000000" stroke="none">
<path d="M2280 4675 c-720 -100 -1337 -549 -1646 -1200 -85 -179 -141 -356
-181 -575 -25 -136 -25 -544 0 -680 87 -471 279 -844 601 -1166 321 -321 699
-516 1161 -600 121 -22 442 -30 576 -15 591 68 1126 374 1476 845 207 277 333
573 398 931 22 123 31 423 16 566 -104 995 -891 1788 -1886 1899 -122 13 -399
11 -515 -5z m368 -1237 c18 -11 41 -37 52 -59 19 -36 20 -60 20 -349 l0 -310
310 0 c289 0 313 -1 349 -20 113 -57 113 -223 0 -280 -36 -19 -60 -20 -349
-20 l-310 0 0 -310 c0 -289 -1 -313 -20 -349 -57 -113 -223 -113 -280 0 -19
36 -20 60 -20 349 l0 310 -311 0 c-303 0 -312 1 -351 22 -109 61 -110 214 -2
275 38 22 47 23 352 23 l312 0 0 310 c0 287 1 314 19 349 24 45 39 59 88 77
45 16 96 10 141 -18z"/>
</g>
</svg>
