<?xml version="1.0" standalone="no"?>
<!DOCTYPE svg PUBLIC "-//W3C//DTD SVG 20010904//EN"
 "http://www.w3.org/TR/2001/REC-SVG-20010904/DTD/svg10.dtd">
<svg version="1.0" xmlns="http://www.w3.org/2000/svg"
 width="512.000000pt" height="512.000000pt" viewBox="0 0 512.000000 512.000000"
 preserveAspectRatio="xMidYMid meet">

<g transform="translate(0.000000,512.000000) scale(0.100000,-0.100000)"
fill="#000000" stroke="none">
<path d="M2499 4466 c-56 -20 -96 -53 -126 -104 l-28 -47 -5 -750 -5 -750
-770 -5 -770 -5 -35 -22 c-158 -98 -159 -318 -1 -411 l46 -27 767 -3 768 -2 2
-768 3 -767 27 -46 c49 -84 152 -132 245 -114 73 13 125 50 169 120 18 28 19
67 24 800 l5 770 750 5 750 5 46 27 c84 49 132 152 114 245 -13 73 -50 125
-120 169 -28 18 -67 19 -785 24 l-755 5 -5 755 c-5 755 -5 755 -27 790 -62
100 -179 144 -284 106z"/>
</g>
</svg>
