<?xml version="1.0" standalone="no"?>
<!DOCTYPE svg PUBLIC "-//W3C//DTD SVG 20010904//EN"
 "http://www.w3.org/TR/2001/REC-SVG-20010904/DTD/svg10.dtd">
<svg version="1.0" xmlns="http://www.w3.org/2000/svg"
 width="512.000000pt" height="512.000000pt" viewBox="0 0 512.000000 512.000000"
 preserveAspectRatio="xMidYMid meet">

<g transform="translate(0.000000,512.000000) scale(0.100000,-0.100000)"
fill="#000000" stroke="none">
<path d="M2315 5109 c-786 -75 -1501 -519 -1927 -1196 -604 -961 -490 -2237
274 -3068 425 -462 951 -737 1583 -827 119 -17 512 -16 635 1 622 86 1148 360
1572 820 349 378 573 862 650 1406 20 139 17 503 -6 660 -21 155 -80 393 -131
531 -45 123 -167 374 -231 474 -196 309 -470 590 -769 788 -134 89 -392 219
-540 271 -357 126 -742 175 -1110 140z m565 -354 c232 -35 439 -99 655 -205
663 -325 1108 -937 1222 -1680 24 -158 24 -463 -1 -620 -75 -493 -283 -907
-631 -1255 -346 -348 -761 -556 -1255 -631 -157 -25 -462 -25 -620 -1 -476 73
-882 272 -1225 599 -303 289 -520 664 -619 1069 -45 185 -60 318 -60 529 0
211 14 340 60 529 155 635 588 1171 1179 1461 256 126 489 190 810 224 78 8
382 -4 485 -19z"/>
<path d="M1729 3731 c-88 -28 -154 -69 -218 -135 -99 -104 -141 -212 -141
-360 1 -199 105 -364 285 -451 90 -43 171 -59 260 -52 256 22 453 220 471 476
17 227 -123 439 -341 516 -88 31 -229 34 -316 6z m233 -343 c129 -73 106 -261
-37 -308 -106 -35 -215 50 -215 167 0 127 138 205 252 141z"/>
<path d="M3489 3721 c-24 -16 -508 -494 -1076 -1062 -926 -928 -1033 -1038
-1043 -1077 -35 -133 79 -247 212 -212 39 10 149 117 1081 1048 571 570 1050
1056 1064 1080 21 36 25 52 21 97 -11 131 -148 198 -259 126z"/>
<path d="M3160 2383 c-98 -16 -190 -63 -267 -136 -280 -265 -180 -724 186
-853 81 -29 218 -33 302 -8 128 38 256 140 312 249 54 109 73 250 46 365 -29
128 -136 264 -255 327 -97 52 -222 73 -324 56z m174 -362 c99 -62 101 -212 3
-285 -42 -31 -126 -34 -177 -5 -95 54 -116 180 -42 263 50 56 149 68 216 27z"/>
</g>
</svg>
