<?xml version="1.0" standalone="no"?>
<!DOCTYPE svg PUBLIC "-//W3C//DTD SVG 20010904//EN"
 "http://www.w3.org/TR/2001/REC-SVG-20010904/DTD/svg10.dtd">
<svg version="1.0" xmlns="http://www.w3.org/2000/svg"
 width="512.000000pt" height="512.000000pt" viewBox="0 0 512.000000 512.000000"
 preserveAspectRatio="xMidYMid meet">

<g transform="translate(0.000000,512.000000) scale(0.100000,-0.100000)"
fill="#000000" stroke="none">
<path d="M2235 5108 c-538 -39 -1073 -191 -1463 -414 -224 -129 -428 -301
-553 -467 -74 -98 -160 -273 -191 -387 l-23 -85 0 -1195 0 -1195 23 -85 c29
-106 93 -242 162 -346 68 -102 269 -301 387 -384 635 -446 1614 -640 2568
-509 702 96 1285 351 1641 720 152 158 260 342 306 525 l23 89 0 1185 0 1185
-23 89 c-123 483 -633 903 -1362 1121 -449 134 -995 190 -1495 153z m605 -298
c667 -50 1232 -242 1611 -548 232 -187 369 -429 369 -652 0 -223 -137 -465
-369 -652 -722 -583 -2152 -733 -3182 -335 -538 208 -883 519 -953 859 -20 95
-20 155 -2 251 29 152 117 301 261 442 143 141 309 250 540 356 477 219 1125
324 1725 279z m-2300 -2132 c517 -386 1303 -598 2125 -575 445 13 830 80 1200
208 376 130 655 291 878 508 l77 76 0 -718 c0 -617 -2 -729 -16 -795 -59 -286
-309 -550 -712 -752 -996 -498 -2519 -422 -3346 168 -103 73 -251 219 -306
301 -23 35 -58 97 -77 138 -62 135 -63 147 -63 941 l0 716 83 -80 c45 -45 116
-106 157 -136z"/>
<path d="M2320 4313 c-565 -39 -988 -160 -1232 -351 -124 -97 -198 -229 -198
-352 0 -73 35 -171 85 -238 163 -223 619 -397 1180 -453 173 -17 657 -18 805
-1 411 48 672 116 910 239 189 97 299 208 340 340 128 415 -426 744 -1370 813
-124 9 -412 11 -520 3z m522 -304 c84 -6 184 -16 221 -23 l68 -11 150 -329
c82 -181 149 -332 149 -336 0 -10 -171 -47 -318 -70 -208 -32 -164 -72 -337
308 -82 180 -163 360 -181 400 l-33 72 64 0 c36 0 133 -5 217 -11z m-427 -395
c99 -218 182 -401 184 -406 7 -20 -541 10 -561 30 -8 9 -308 671 -308 681 0
13 250 61 410 80 41 5 80 9 85 10 6 0 91 -177 190 -395z m1180 245 c122 -47
214 -98 274 -155 50 -46 56 -56 56 -92 0 -33 -7 -48 -35 -78 -38 -39 -145
-114 -165 -114 -10 0 -77 138 -201 418 -13 28 -20 52 -16 52 4 0 43 -14 87
-31z m-2038 -294 c62 -136 112 -249 111 -250 -8 -7 -167 52 -255 95 -127 62
-211 136 -220 193 -6 36 -3 41 53 95 56 54 168 125 189 119 5 -2 60 -115 122
-252z"/>
<path d="M888 1969 c-43 -22 -78 -81 -78 -129 0 -74 76 -150 149 -150 77 0
151 74 151 150 0 50 -35 107 -80 130 -49 25 -94 25 -142 -1z"/>
<path d="M2888 1729 c-43 -22 -78 -81 -78 -129 0 -74 76 -150 149 -150 77 0
151 74 151 150 0 50 -35 107 -80 130 -49 25 -94 25 -142 -1z"/>
<path d="M3928 1329 c-43 -22 -78 -81 -78 -129 0 -76 74 -150 150 -150 74 0
150 76 150 149 0 51 -35 108 -80 131 -49 25 -94 25 -142 -1z"/>
<path d="M1848 1089 c-43 -22 -78 -81 -78 -129 0 -74 76 -150 149 -150 77 0
151 74 151 150 0 50 -35 107 -80 130 -49 25 -94 25 -142 -1z"/>
</g>
</svg>
